name processed_emg_signals
nRows=92
nColumns=7
 
endheader
time	RGLTMED	RRF	RADDLONG	RST	RTA	RGM
1.28	0.3320228967652527	0.4879363962776696	0.396005009317516	0.3272304131499938	0.6658961606541219	0.1081140369720344
1.281	0.3374668902319883	0.4922873197321654	0.399041807337109	0.3261119871346843	0.6607432960991437	0.1082545273054558
1.282	0.342916348186643	0.496537666961316	0.4020026978924222	0.3251251134359059	0.6553862888006781	0.1084056398099439
1.283	0.3483680940189483	0.5006831078874356	0.4048846294066864	0.3242652088860828	0.64982879123622	0.1085684254284548
1.284	0.353818926583582	0.5047193665423931	0.4076846160422615	0.3235275895068318	0.6440746338557598	0.1087439512946817
1.285	0.3592656230641833	0.5086422279193277	0.4103997426319099	0.3229074784246545	0.6381278227722342	0.108933299726092
1.286	0.3647049418409551	0.5124475448610148	0.4130271695394406	0.3224000137861203	0.6319925372704782	0.1091375671786967
1.287	0.3701336253599479	0.5161312449676242	0.4155641374330038	0.3220002566674638	0.6256731271176978	0.109357863162462
1.288	0.3755484030031285	0.5196893375062537	0.4180079719531617	0.3217031989746379	0.6191741096575553	0.1095953091159999
1.289	0.3809459939586996	0.5231179203030456	0.4203560882575406	0.3215037713308455	0.6125001666690694	0.1098510372394255
1.29	0.3863231100916326	0.526413186597824	0.4226059954237549	0.3213968509493922	0.605656140970547	0.1101261892844021
1.291	0.3916764588142495	0.5295714318401663	0.4247553006937762	0.3213772694904671	0.5986470327481229	0.1104219153007737
1.292	0.3970027459568385	0.5325890604053998	0.4268017135442	0.3214398209006996	0.5914779955890097	0.1107393723394623
1.293	0.4022986786388144	0.5354625922086641	0.4287430495695437	0.3215792692342792	0.5841543322023681	0.1110797231115755
1.294	0.4075609681414907	0.5381886691951739	0.4305772341678604	0.321790356453677	0.5766814898157164	0.1114441346038652
1.295	0.412786332784191	0.5407640616855143	0.4323023060196814	0.3220678102074571	0.5690650552408163	0.1118337766507888
1.296	0.4179715008049552	0.5431856745557203	0.4339164203533582	0.3224063515815156	0.5613107496083992	0.1122498204638583
1.297	0.4231132132473033	0.545450553232844	0.4354178519912339	0.322800702819168	0.5534244227750407	0.1126934371189758
1.298	0.4282082268538047	0.5475558894876037	0.4368049981718695	0.3232455950043514	0.5454120474081361	0.1131657960028946
1.299	0.4332533169669328	0.5494990270066409	0.4380763811442371	0.3237357757011529	0.5372797127567838	0.1136680632201379
1.3	0.4382452804372818	0.5512774667281017	0.4392306505294851	0.3242660165417194	0.5290336181177243	0.114201399961772
1.301	0.4431809385389261	0.5528888719254974	0.4402665854464899	0.3248311207533902	0.5206800660068184	0.1147669608378124
1.302	0.4480571398917768	0.5543310730251321	0.4411830963968988	0.3254259306148237	0.5122254550481059	0.115365892175444
1.303	0.4528707633909545	0.5556020721427892	0.4419792269055353	0.3260453348295619	0.5036762725946433	0.1159993302857634
1.304	0.4576187211432774	0.5567000473252047	0.4426541549117112	0.3266842758045395	0.4950390870979668	0.1166683997026172
1.305	0.4622979614104219	0.5576233564819636	0.4432071939070034	0.3273377568198821	0.486320540245273	0.1173742113974789
1.306	0.4669054715573729	0.5583705409940092	0.4436377938148475	0.3280008490753493	0.477527338885313	0.1181178609749778
1.307	0.4714382810040954	0.5589403289858604	0.4439455416086189	0.3286686985978029	0.4686662467654162	0.1189004268537852
1.308	0.4758934641771618	0.5593316382507074	0.4441301616654315	0.3293365329932318	0.4597440761032541	0.1197229684380225
1.309	0.4802681434581048	0.5595435788197107	0.4441915158554794	0.3299996680259854	0.4507676790176373	0.1205865242844134
1.31	0.484559492124605	0.5595754551694406	0.4441296033686359	0.3306535140073805	0.4417439388428126	0.1214921102705711
1.311	0.4887647372807439	0.5594267680638434	0.4439445602824545	0.3312935819751988	0.4326797613508324	0.1224407177697078
1.312	0.4928811627722096	0.5590972160295644	0.4436366588777858	0.3319154896454246	0.423582065906766	0.1234333118368175
1.313	0.496906112082177	0.5585866964650833	0.4432063067100424	0.3325149671177198	0.4144577765817687	0.1244708294111603
1.314	0.5008369912033053	0.557895306385204	0.4426540454451709	0.3330878623169041	0.4053138132491811	0.1255541775396141
1.315	0.504671271481048	0.5570233428030991	0.4419805494703884	0.3336301461538579	0.3961570826885369	0.126684231625282
1.316	0.5084064924235132	0.5559713027519707	0.4411866242896266	0.33413791739074	0.3869944697219387	0.1278618337054651
1.317	0.5120402644729057	0.5547398829486752	0.4402732047136975	0.3346074071965784	0.3778328284063957	0.1290877907631077
1.318	0.5155702717331218	0.5533299791011708	0.4392413528547078	0.3350349833810108	0.3686789733047341	0.1303628730753182
1.319	0.5189942746474919	0.551742684862376	0.4380922559338045	0.3354171542955007	0.3595396708566482	0.1316878126025755
1.32	0.5223101126195014	0.5499792904332954	0.4368272239114106	0.3357505723933543	0.350421630870306	0.1330633014219453
1.321	0.5255157065683356	0.548041280819106	0.4354476869485607	0.3360320374419941	0.3413314981538037	0.1344899902073421
1.322	0.5286090614100722	0.545930333742745	0.4339551927074151	0.3362584993832834	0.3322758443047285	0.1359684867597531
1.323	0.5315882684542194	0.5436483172209229	0.4323514034988467	0.3364270608401388	0.3232611596748599	0.1374993545900212
1.324	0.5344515077045808	0.5411972868080944	0.4306380932835242	0.3365349792699046	0.3142938455259808	0.139083111556566
1.325	0.5371970500532689	0.5385794825148967	0.4288171445327616	0.3365796687672275	0.3053802063916641	0.1407202285602309
1.326	0.539823259357543	0.535797325407674	0.4268905449541418	0.3365587015205611	0.2965264426587712	0.1424111282981219
1.327	0.5423285943909282	0.5328534138966208	0.4248603840865753	0.3364698089277862	0.2877386433813746	0.1441561840780719
1.328	0.5447116106626185	0.5297505197204502	0.4227288497687285	0.3363108823776316	0.2790227793386248	0.145955718695266
1.329	0.5469709621014605	0.5264915836366139	0.4204982244849208	0.3360799737053768	0.2703846963470963	0.1478100033719933
1.33	0.5491054026033095	0.5230797108273177	0.418170881592194	0.3357752953332121	0.2618301088370309	0.1497192567616837
1.331	0.5511137874425225	0.519518166032909	0.4157492814325845	0.3353952201073378	0.2533645937009936	0.1516836440179614
1.332	0.5529950745497346	0.5158103684248787	0.4132359673348767	0.3349382808451101	0.2449935844223876	0.1537032759295825
1.333	0.5547483256592659	0.5119598862309399	0.4106335615106279	0.3344031696060047	0.2367223654903524	0.1557782081217891
1.334	0.5563727073306958	0.507970431124268	0.4079447608503437	0.3337887367003359	0.2285560671067342	0.1579084403244516
1.335	0.5578674918498322	0.5038458523884586	0.405172332626894	0.3330939894495926	0.22049966018989	0.1600939157070984
1.336	0.5592320580150438	0.4995901308686731	0.4023191101144674	0.3323180907119496	0.2125579516794391	0.1623345202806635
1.337	0.5604658918148641	0.4952073727187855	0.3993879881318792	0.3314603571868645	0.2047355801453156	0.1646300823655893
1.338	0.561568587002836	0.4907018029534845	0.3963819185201421	0.3305202575129997	0.1970370117037319	0.1669803721256545
1.339	0.5625398455749162	0.4860777588151643	0.3933039055641284	0.329497410174217	0.1894665362420265	0.1693851011666263
1.34	0.563379478154321	0.4813396829660252	0.3901570013693249	0.3283915812289968	0.1820282639535717	0.1718439221985635
1.341	0.5640874042878912	0.4764921165182726	0.3869443012055588	0.3272026818791523	0.1747261221832927	0.1743564287604166
1.342	0.5646636526576372	0.4715396919171236	0.3836689388306861	0.3259307658939807	0.1675638525836581	0.1769221550053976
1.343	0.5651083612109656	0.4664871256936591	0.3803340818079745	0.3245760269063403	0.1605450085803142	0.1795405755457915
1.344	0.565421777213413	0.4613392111058425	0.3769429268309889	0.3231387955969951	0.1536729531459966	0.1822111053554896
1.345	0.565604257228786	0.4561008106873741	0.3734986950689513	0.3216195367834027	0.1469508568807461	0.1849330997288043
1.346	0.565656267032153	0.4507768487242767	0.3700046275454408	0.3200188464286654	0.1403816963960036	0.1877058542941043
1.347	0.5655783814618984	0.4453723036790661	0.3664639805622192	0.3183374485856884	0.1339682529996841	0.1905286050811984
1.348	0.5653712842161543	0.4398922005825429	0.3628800211800705	0.3165761922906368	0.127713111678956	0.1934005286418403
1.349	0.5650357675982816	0.4343416034133657	0.3592560227675064	0.3147360484189039	0.1216186603769847	0.1963207422231092
1.35	0.5645727322144314	0.4287256074853569	0.3555952606280179	0.3128181065155896	0.1156870895596862	0.1992883039940313
1.351	0.563983186625524	0.4230493318619046	0.3519010077154724	0.31082357161178	0.1099203920681268	0.2023022133261945
1.352	0.5632682469549154	0.4173179118162637	0.3481765304462628	0.3087537610367262	0.1043203632519938	0.2053614111290884
1.353	0.562429136452924	0.4115364913556052	0.3444250846163355	0.3066101012352579	0.0988886013791918	0.2084647802410162
1.354	0.5614671850189984	0.4057102158259216	0.3406499114296444	0.3043941245988362	0.0936265083162925	0.2116111458762267
1.355	0.5603838286822531	0.3998442246137786	0.3368542336439699	0.3021074663178144	0.0885352904742297	0.2147992761293859
1.356	0.5591806090414405	0.3939436439600383	0.3330412518392934	0.2997518612615565	0.0836159600132974	0.2180278825389096
1.357	0.5578591726647637	0.3880135798995594	0.3292141408127437	0.297329140892092	0.0788693363012517	0.2212956207111091
1.358	0.5564212704498658	0.3820591113399211	0.3253760461038095	0.2948412302161783	0.0742960476180346	0.2246010910076429
1.359	0.5548687569438644	0.3760852832916354	0.3215300806526256	0.2922901447797284	0.069896533100387	0.2279428392991567
1.36	0.5532035896235407	0.3700971002609238	0.3176793215935672	0.289677987707945	0.0656710449194147	0.2313193577884333
1.361	0.551427828135961	0.3640995198155254	0.3138268071857032	0.2870069467938078	0.0616196506839237	0.2347290859064824
1.362	0.5495436334997406	0.3580974463329415	0.309975533881044	0.2842792916369457	0.0577422360620956	0.2381704112847041
1.363	0.5475532672669081	0.3520957249396435	0.3061284535308448	0.2814973708342351	0.054038507613898	0.2416416708061027
1.364	0.5454590906443895	0.3460991356494187	0.3022884707303712	0.2786636092226551	0.0505079958263685	0.2451411517379856
1.365	0.5432635635730305	0.3401123877078555	0.2984584403019967	0.2757805051740313	0.0471500583437768	0.2486670929483507
1.366	0.5409692437606641	0.3341401141497475	0.2946411649168426	0.2728506279403179	0.0439638833844863	0.2522176862076359
1.367	0.5385787856645091	0.3281868665750944	0.2908393928550952	0.2698766150470802	0.0409484933362597	0.2557910775769176
1.368	0.5360949394166312	0.3222571101492731	0.2870558159051185	0.2668611697317867	0.0381027485216493	0.2593853688832704
1.369	0.5335205496855533	0.3163552188321145	0.2832930674013599	0.2638070584225198	0.0354253511250588	0.2629986192821241
1.37	0.5308585544656543	0.3104854708404266	0.2795537204010622	0.2607171082517637	0.0329148492729443	0.2666288469061534
1.371	0.5281119837858029	0.3046520443478082	0.2758402859992966	0.2575942045991182	0.0305696412586128	0.2702740305996491
